<svg width="411" height="238" viewBox="0 0 411 238" fill="none" xmlns="http://www.w3.org/2000/svg">
<mask id="mask0_44_196" style="mask-type:alpha" maskUnits="userSpaceOnUse" x="0" y="0" width="411" height="238">
<rect width="411" height="238" fill="#FEFEFE"/>
</mask>
<g mask="url(#mask0_44_196)">
<path d="M33.8128 128V111.608H37.1248V118.448H43.4848V111.608H46.7968V128H43.4848V121.232H37.1248V128H33.8128ZM56.2766 128.264C54.5326 128.264 53.1486 127.96 52.1246 127.352C51.1166 126.728 50.3886 125.792 49.9406 124.544C49.5086 123.296 49.2926 121.736 49.2926 119.864C49.2926 117.976 49.5086 116.4 49.9406 115.136C50.3886 113.872 51.1166 112.92 52.1246 112.28C53.1486 111.64 54.5326 111.32 56.2766 111.32C58.0206 111.32 59.3966 111.64 60.4046 112.28C61.4286 112.92 62.1566 113.872 62.5886 115.136C63.0366 116.4 63.2606 117.976 63.2606 119.864C63.2606 121.768 63.0366 123.344 62.5886 124.592C62.1566 125.84 61.4286 126.768 60.4046 127.376C59.3966 127.968 58.0206 128.264 56.2766 128.264ZM56.2766 125.48C57.2846 125.48 58.0446 125.28 58.5566 124.88C59.0846 124.464 59.4366 123.84 59.6126 123.008C59.7886 122.16 59.8766 121.112 59.8766 119.864C59.8766 118.616 59.7806 117.568 59.5886 116.72C59.4126 115.856 59.0686 115.208 58.5566 114.776C58.0446 114.328 57.2846 114.104 56.2766 114.104C55.2846 114.104 54.5246 114.328 53.9966 114.776C53.4846 115.208 53.1326 115.856 52.9406 116.72C52.7486 117.568 52.6526 118.616 52.6526 119.864C52.6526 121.096 52.7406 122.128 52.9166 122.96C53.1086 123.792 53.4606 124.424 53.9726 124.856C54.5006 125.272 55.2686 125.48 56.2766 125.48ZM71.9261 128.264C70.5821 128.264 69.4381 128.088 68.4941 127.736C67.5661 127.384 66.8621 126.8 66.3821 125.984C65.9021 125.152 65.6621 124.048 65.6621 122.672V111.608H68.9741V122.792C68.9741 123.736 69.2221 124.416 69.7181 124.832C70.2301 125.248 70.9661 125.456 71.9261 125.456C72.9341 125.456 73.6941 125.248 74.2061 124.832C74.7181 124.416 74.9741 123.736 74.9741 122.792V111.608H78.2861V122.624C78.2861 124 78.0381 125.104 77.5421 125.936C77.0621 126.768 76.3501 127.368 75.4061 127.736C74.4781 128.088 73.3181 128.264 71.9261 128.264ZM86.484 128.264C85.876 128.264 85.212 128.224 84.492 128.144C83.772 128.08 83.068 128 82.38 127.904C81.708 127.792 81.132 127.696 80.652 127.616L80.868 125C81.364 125.064 81.94 125.136 82.596 125.216C83.252 125.28 83.9 125.336 84.54 125.384C85.196 125.432 85.764 125.456 86.244 125.456C87.156 125.456 87.82 125.28 88.236 124.928C88.652 124.56 88.86 123.992 88.86 123.224C88.86 122.808 88.772 122.48 88.596 122.24C88.436 121.984 88.14 121.784 87.708 121.64C87.276 121.48 86.676 121.328 85.908 121.184C84.628 120.944 83.588 120.648 82.788 120.296C82.004 119.944 81.428 119.448 81.06 118.808C80.708 118.168 80.532 117.312 80.532 116.24C80.532 114.992 80.764 114.016 81.228 113.312C81.692 112.592 82.356 112.08 83.22 111.776C84.084 111.472 85.1 111.32 86.268 111.32C86.796 111.32 87.396 111.352 88.068 111.416C88.756 111.464 89.428 111.528 90.084 111.608C90.756 111.688 91.324 111.776 91.788 111.872L91.644 114.512C91.164 114.448 90.604 114.392 89.964 114.344C89.34 114.28 88.716 114.224 88.092 114.176C87.484 114.128 86.964 114.104 86.532 114.104C85.62 114.104 84.948 114.248 84.516 114.536C84.084 114.824 83.868 115.288 83.868 115.928C83.868 116.408 83.964 116.776 84.156 117.032C84.348 117.288 84.668 117.496 85.116 117.656C85.58 117.816 86.212 117.984 87.012 118.16C87.956 118.368 88.756 118.592 89.412 118.832C90.084 119.072 90.62 119.36 91.02 119.696C91.436 120.032 91.74 120.464 91.932 120.992C92.124 121.52 92.22 122.184 92.22 122.984C92.22 124.264 91.988 125.296 91.524 126.08C91.076 126.848 90.42 127.408 89.556 127.76C88.708 128.096 87.684 128.264 86.484 128.264ZM94.5159 128V111.608H105.412V114.368H97.8279V118.352H103.972V121.064H97.8279V125.24H105.412V128H94.5159ZM118.865 128.264C117.585 128.264 116.529 128.104 115.697 127.784C114.881 127.448 114.233 126.936 113.753 126.248C113.273 125.56 112.937 124.688 112.745 123.632C112.569 122.56 112.481 121.288 112.481 119.816C112.481 118.328 112.569 117.056 112.745 116C112.937 114.928 113.273 114.048 113.753 113.36C114.233 112.672 114.889 112.16 115.721 111.824C116.569 111.488 117.649 111.32 118.961 111.32C119.489 111.32 120.041 111.352 120.617 111.416C121.193 111.48 121.745 111.56 122.273 111.656C122.817 111.736 123.281 111.824 123.665 111.92L123.569 114.56C123.249 114.496 122.849 114.44 122.369 114.392C121.889 114.328 121.401 114.28 120.905 114.248C120.409 114.216 119.945 114.2 119.513 114.2C118.745 114.2 118.121 114.296 117.641 114.488C117.161 114.68 116.785 115 116.513 115.448C116.257 115.896 116.081 116.48 115.985 117.2C115.889 117.904 115.841 118.776 115.841 119.816C115.841 120.84 115.889 121.712 115.985 122.432C116.081 123.136 116.257 123.712 116.513 124.16C116.769 124.592 117.137 124.912 117.617 125.12C118.113 125.312 118.753 125.408 119.537 125.408C120.177 125.408 120.881 125.376 121.649 125.312C122.433 125.232 123.081 125.16 123.593 125.096L123.665 127.712C123.281 127.792 122.825 127.88 122.297 127.976C121.769 128.056 121.209 128.12 120.617 128.168C120.025 128.232 119.441 128.264 118.865 128.264ZM125.922 128V111.608H129.234V118.448H135.594V111.608H138.906V128H135.594V121.232H129.234V128H125.922ZM148.386 128.264C146.642 128.264 145.258 127.96 144.234 127.352C143.226 126.728 142.498 125.792 142.05 124.544C141.618 123.296 141.402 121.736 141.402 119.864C141.402 117.976 141.618 116.4 142.05 115.136C142.498 113.872 143.226 112.92 144.234 112.28C145.258 111.64 146.642 111.32 148.386 111.32C150.13 111.32 151.506 111.64 152.514 112.28C153.538 112.92 154.266 113.872 154.698 115.136C155.146 116.4 155.37 117.976 155.37 119.864C155.37 121.768 155.146 123.344 154.698 124.592C154.266 125.84 153.538 126.768 152.514 127.376C151.506 127.968 150.13 128.264 148.386 128.264ZM148.386 125.48C149.394 125.48 150.154 125.28 150.666 124.88C151.194 124.464 151.546 123.84 151.722 123.008C151.898 122.16 151.986 121.112 151.986 119.864C151.986 118.616 151.89 117.568 151.698 116.72C151.522 115.856 151.178 115.208 150.666 114.776C150.154 114.328 149.394 114.104 148.386 114.104C147.394 114.104 146.634 114.328 146.106 114.776C145.594 115.208 145.242 115.856 145.05 116.72C144.858 117.568 144.762 118.616 144.762 119.864C144.762 121.096 144.85 122.128 145.026 122.96C145.218 123.792 145.57 124.424 146.082 124.856C146.61 125.272 147.378 125.48 148.386 125.48ZM157.867 128V111.608H164.275C165.587 111.608 166.683 111.776 167.563 112.112C168.459 112.448 169.123 113.008 169.555 113.792C170.003 114.576 170.227 115.64 170.227 116.984C170.227 118.168 170.011 119.168 169.579 119.984C169.163 120.784 168.523 121.376 167.659 121.76L170.227 128H166.747L164.587 122.504H161.179V128H157.867ZM161.179 119.792H164.347C164.955 119.792 165.443 119.68 165.811 119.456C166.179 119.216 166.443 118.888 166.603 118.472C166.763 118.04 166.843 117.552 166.843 117.008C166.843 116.112 166.635 115.44 166.219 114.992C165.803 114.544 165.155 114.32 164.275 114.32H161.179V119.792ZM172.657 128V111.608H183.553V114.368H175.969V118.352H182.113V121.064H175.969V125.24H183.553V128H172.657ZM191.179 128.264C190.571 128.264 189.907 128.224 189.187 128.144C188.467 128.08 187.763 128 187.075 127.904C186.403 127.792 185.827 127.696 185.347 127.616L185.563 125C186.059 125.064 186.635 125.136 187.291 125.216C187.947 125.28 188.595 125.336 189.235 125.384C189.891 125.432 190.459 125.456 190.939 125.456C191.851 125.456 192.515 125.28 192.931 124.928C193.347 124.56 193.555 123.992 193.555 123.224C193.555 122.808 193.467 122.48 193.291 122.24C193.131 121.984 192.835 121.784 192.403 121.64C191.971 121.48 191.371 121.328 190.603 121.184C189.323 120.944 188.283 120.648 187.483 120.296C186.699 119.944 186.123 119.448 185.755 118.808C185.403 118.168 185.227 117.312 185.227 116.24C185.227 114.992 185.459 114.016 185.923 113.312C186.387 112.592 187.051 112.08 187.915 111.776C188.779 111.472 189.795 111.32 190.963 111.32C191.491 111.32 192.091 111.352 192.763 111.416C193.451 111.464 194.123 111.528 194.779 111.608C195.451 111.688 196.019 111.776 196.483 111.872L196.339 114.512C195.859 114.448 195.299 114.392 194.659 114.344C194.035 114.28 193.411 114.224 192.787 114.176C192.179 114.128 191.659 114.104 191.227 114.104C190.315 114.104 189.643 114.248 189.211 114.536C188.779 114.824 188.563 115.288 188.563 115.928C188.563 116.408 188.659 116.776 188.851 117.032C189.043 117.288 189.363 117.496 189.811 117.656C190.275 117.816 190.907 117.984 191.707 118.16C192.651 118.368 193.451 118.592 194.107 118.832C194.779 119.072 195.315 119.36 195.715 119.696C196.131 120.032 196.435 120.464 196.627 120.992C196.819 121.52 196.915 122.184 196.915 122.984C196.915 124.264 196.683 125.296 196.219 126.08C195.771 126.848 195.115 127.408 194.251 127.76C193.403 128.096 192.379 128.264 191.179 128.264Z" fill="#6D5210"/>
<path d="M311 213C289.253 213 268.178 205.471 251.367 191.695C234.556 177.919 223.049 158.75 218.806 137.452C214.564 116.155 217.848 94.0477 228.099 74.897C238.351 55.7464 213.238 64.3077 233.33 55.9979C253.422 47.688 346.957 68.5936 367.768 74.897C388.579 81.2004 377.076 48.9414 389.158 66.9964C401.24 85.0515 406.679 106.731 404.547 128.341C402.416 149.951 392.846 170.155 377.468 185.509C368.76 194.252 358.401 201.183 346.992 205.902C335.583 210.621 323.349 213.033 311 213ZM311 26C259.565 26 217.718 67.783 217.718 119.142C217.718 170.5 259.565 212.283 311 212.283C362.436 212.283 404.282 170.5 404.282 119.142C404.282 67.783 362.436 26 311 26Z" fill="#2F2E41"/>
<path d="M358.204 151.919L358.194 151.925L313.161 177L263.85 152.344L263 151.919L265.559 100.735L310.09 69L310.582 69.3072L356.668 98.1754L358.204 151.919Z" fill="#FFD449"/>
<path opacity="0.3" d="M358.194 151.925L313.161 177L263.85 152.344L307.531 121.721L358.194 151.925Z" fill="black"/>
<path opacity="0.1" d="M358.204 151.919L307.531 121.721L310.582 69.3073L356.668 98.1754L358.204 151.919Z" fill="black"/>
<path d="M264.904 116.529L264.653 116.175L309.681 84.3922L357.247 114.214L357.017 114.582L309.695 84.9129L264.904 116.529Z" fill="#F2F2F2"/>
<path d="M264.031 133.918L263.787 133.559L308.587 103.144L308.704 103.21L357.287 130.745L357.073 131.122L308.607 103.654L264.031 133.918Z" fill="#F2F2F2"/>
<path d="M281.124 161.109L280.896 160.74L326.046 132.763V79.1299H326.479V133.005L281.124 161.109Z" fill="#F2F2F2"/>
<path d="M298.846 169.968L298.615 169.601L342.09 142.333V89.1792H342.523V142.573L298.846 169.968Z" fill="#F2F2F2"/>
<path d="M341.926 161.114L291.365 133.021L291.372 132.886L294.034 80.2775L294.467 80.2996L291.812 132.773L342.137 160.735L341.926 161.114Z" fill="#F2F2F2"/>
<path d="M326.018 169.977L276.025 143.778L276.033 143.639L278.98 91.0042L279.413 91.0284L276.474 143.524L326.22 169.593L326.018 169.977Z" fill="#F2F2F2"/>
</g>
</svg>
